<?xml version="1.0" standalone="no"?>
<!DOCTYPE svg PUBLIC "-//W3C//DTD SVG 20010904//EN"
 "http://www.w3.org/TR/2001/REC-SVG-20010904/DTD/svg10.dtd">
<svg version="1.0" xmlns="http://www.w3.org/2000/svg"
 width="512.000000pt" height="512.000000pt" viewBox="0 0 512.000000 512.000000"
 preserveAspectRatio="xMidYMid meet">

<g transform="translate(0.000000,512.000000) scale(0.100000,-0.100000)"
fill="#000000" stroke="none">
<path d="M3630 3741 l0 -449 46 -11 c116 -29 259 -116 344 -207 120 -129 183
-269 205 -456 l6 -58 -1165 0 -1166 0 0 -423 c0 -348 -3 -433 -15 -482 -38
-145 -125 -238 -297 -319 -169 -80 -203 -89 -316 -84 -83 3 -107 8 -165 35
-194 92 -303 309 -256 512 33 143 128 252 290 329 168 81 218 94 324 90 49 -3
98 -8 108 -12 16 -8 17 4 17 173 l0 181 -795 0 -795 0 0 -692 c0 -773 1 -775
67 -907 66 -130 181 -228 333 -283 l65 -23 1532 0 c1531 0 1532 0 1559 21 55
41 68 69 74 161 l5 87 86 12 c601 87 1121 524 1313 1104 114 345 113 690 -4
1043 -188 565 -680 989 -1267 1092 -49 8 -98 15 -110 15 l-23 0 0 -449z"/>
</g>
</svg>
